<mxfile host="app.diagrams.net" agent="Mozilla/5.0 (Macintosh; Intel Mac OS X 10_15_7) AppleWebKit/537.36 (KHTML, like Gecko) Chrome/133.0.0.0 Safari/537.36" version="26.1.3">
  <diagram name="分层架构图" id="iSVcDsmyzLqEdLnjOtEb">
    <mxGraphModel dx="1434" dy="819" grid="1" gridSize="10" guides="1" tooltips="1" connect="1" arrows="1" fold="1" page="1" pageScale="1" pageWidth="1169" pageHeight="827" math="0" shadow="0">
      <root>
        <mxCell id="0" />
        <mxCell id="1" parent="0" />
        <mxCell id="VGJzJ55Yt3Gp-UUYRj1f-1" value="&lt;div&gt;&lt;b&gt;&lt;font style=&quot;font-size: 15px;&quot;&gt;web js sdk&lt;/font&gt;&lt;/b&gt;&lt;/div&gt;" style="rounded=0;whiteSpace=wrap;html=1;fillColor=#ffe6cc;strokeColor=#d79b00;" vertex="1" parent="1">
          <mxGeometry x="160" y="160" width="340" height="30" as="geometry" />
        </mxCell>
        <mxCell id="VGJzJ55Yt3Gp-UUYRj1f-2" value="可视化埋点配置工具" style="rounded=0;whiteSpace=wrap;html=1;fillColor=#ffe6cc;strokeColor=#d79b00;" vertex="1" parent="1">
          <mxGeometry x="320" y="190" width="180" height="40" as="geometry" />
        </mxCell>
        <mxCell id="VGJzJ55Yt3Gp-UUYRj1f-3" value="埋点上报" style="rounded=0;whiteSpace=wrap;html=1;fillColor=#ffe6cc;strokeColor=#d79b00;" vertex="1" parent="1">
          <mxGeometry x="160" y="190" width="160" height="40" as="geometry" />
        </mxCell>
        <mxCell id="VGJzJ55Yt3Gp-UUYRj1f-4" value="埋点配置后管&lt;br&gt;zaip-coreweb-autoback-web" style="rounded=0;whiteSpace=wrap;html=1;fillColor=#dae8fc;strokeColor=#6c8ebf;" vertex="1" parent="1">
          <mxGeometry x="550" y="160" width="210" height="70" as="geometry" />
        </mxCell>
        <mxCell id="VGJzJ55Yt3Gp-UUYRj1f-6" value="C端服务&lt;br&gt;&lt;span style=&quot;font-size: 12px; font-weight: 400;&quot;&gt;zaip-coreweb-autobackclient-service&lt;/span&gt;" style="rounded=0;whiteSpace=wrap;html=1;fontStyle=1;fontSize=14;fillColor=#f8cecc;strokeColor=#b85450;" vertex="1" parent="1">
          <mxGeometry x="160" y="370" width="230" height="50" as="geometry" />
        </mxCell>
        <mxCell id="VGJzJ55Yt3Gp-UUYRj1f-7" value="B端服务&lt;br style=&quot;font-size: 12px; font-weight: 400;&quot;&gt;&lt;span style=&quot;font-size: 12px; font-weight: 400;&quot;&gt;zaip-coreweb-autoback-service&lt;/span&gt;" style="rounded=0;whiteSpace=wrap;html=1;fontStyle=1;fontSize=14;fillColor=#e1d5e7;strokeColor=#9673a6;" vertex="1" parent="1">
          <mxGeometry x="520" y="370" width="240" height="50" as="geometry" />
        </mxCell>
        <mxCell id="VGJzJ55Yt3Gp-UUYRj1f-8" value="查询项目埋点配置" style="rounded=0;whiteSpace=wrap;html=1;spacingLeft=20;fillColor=#f8cecc;strokeColor=#b85450;align=left;" vertex="1" parent="1">
          <mxGeometry x="160" y="420" width="230" height="80" as="geometry" />
        </mxCell>
        <mxCell id="VGJzJ55Yt3Gp-UUYRj1f-32" style="edgeStyle=orthogonalEdgeStyle;rounded=0;orthogonalLoop=1;jettySize=auto;html=1;exitX=1;exitY=0.25;exitDx=0;exitDy=0;entryX=0;entryY=0.25;entryDx=0;entryDy=0;" edge="1" parent="1" source="VGJzJ55Yt3Gp-UUYRj1f-9" target="VGJzJ55Yt3Gp-UUYRj1f-11">
          <mxGeometry relative="1" as="geometry" />
        </mxCell>
        <mxCell id="VGJzJ55Yt3Gp-UUYRj1f-42" value="" style="edgeStyle=orthogonalEdgeStyle;rounded=0;orthogonalLoop=1;jettySize=auto;html=1;" edge="1" parent="1" source="VGJzJ55Yt3Gp-UUYRj1f-9" target="VGJzJ55Yt3Gp-UUYRj1f-38">
          <mxGeometry relative="1" as="geometry">
            <Array as="points">
              <mxPoint x="640" y="560" />
              <mxPoint x="640" y="560" />
            </Array>
          </mxGeometry>
        </mxCell>
        <mxCell id="VGJzJ55Yt3Gp-UUYRj1f-9" value="- 项目管理服务&lt;br&gt;- 埋点配置服务&lt;br&gt;- 权限管理服务&lt;br&gt;- 发布管理服务&lt;div&gt;&lt;br&gt;&lt;/div&gt;" style="rounded=0;whiteSpace=wrap;html=1;align=left;spacingLeft=20;fillColor=#e1d5e7;strokeColor=#9673a6;" vertex="1" parent="1">
          <mxGeometry x="520" y="420" width="240" height="80" as="geometry" />
        </mxCell>
        <mxCell id="VGJzJ55Yt3Gp-UUYRj1f-10" value="集团SSO" style="rounded=0;whiteSpace=wrap;html=1;fontStyle=1;fontSize=14;fillColor=#f5f5f5;fontColor=#333333;strokeColor=#666666;" vertex="1" parent="1">
          <mxGeometry x="840" y="370" width="220" height="50" as="geometry" />
        </mxCell>
        <mxCell id="VGJzJ55Yt3Gp-UUYRj1f-11" value="&lt;div&gt;- 登录&lt;br&gt;- 登出&lt;br&gt;- 获取用户信息&lt;/div&gt;" style="rounded=0;whiteSpace=wrap;html=1;align=left;spacingLeft=20;fillColor=#f5f5f5;fontColor=#333333;strokeColor=#666666;" vertex="1" parent="1">
          <mxGeometry x="840" y="420" width="220" height="80" as="geometry" />
        </mxCell>
        <mxCell id="VGJzJ55Yt3Gp-UUYRj1f-29" style="edgeStyle=orthogonalEdgeStyle;rounded=0;orthogonalLoop=1;jettySize=auto;html=1;exitX=0.75;exitY=1;exitDx=0;exitDy=0;entryX=0.5;entryY=0;entryDx=0;entryDy=0;" edge="1" parent="1" source="VGJzJ55Yt3Gp-UUYRj1f-23" target="VGJzJ55Yt3Gp-UUYRj1f-7">
          <mxGeometry relative="1" as="geometry">
            <Array as="points">
              <mxPoint x="640" y="310" />
            </Array>
          </mxGeometry>
        </mxCell>
        <mxCell id="VGJzJ55Yt3Gp-UUYRj1f-37" style="edgeStyle=orthogonalEdgeStyle;rounded=0;orthogonalLoop=1;jettySize=auto;html=1;exitX=0.25;exitY=1;exitDx=0;exitDy=0;entryX=0.5;entryY=0;entryDx=0;entryDy=0;" edge="1" parent="1" source="VGJzJ55Yt3Gp-UUYRj1f-23" target="VGJzJ55Yt3Gp-UUYRj1f-6">
          <mxGeometry relative="1" as="geometry">
            <Array as="points">
              <mxPoint x="275" y="310" />
            </Array>
          </mxGeometry>
        </mxCell>
        <mxCell id="VGJzJ55Yt3Gp-UUYRj1f-23" value="nginx" style="rounded=1;whiteSpace=wrap;html=1;fillColor=#d5e8d4;strokeColor=#82b366;glass=0;shadow=0;imageAspect=1;movable=0;resizable=0;rotatable=0;deletable=0;gradientColor=none;" vertex="1" parent="1">
          <mxGeometry x="160" y="280" width="600" height="30" as="geometry" />
        </mxCell>
        <mxCell id="VGJzJ55Yt3Gp-UUYRj1f-24" style="edgeStyle=orthogonalEdgeStyle;rounded=0;orthogonalLoop=1;jettySize=auto;html=1;exitX=0.5;exitY=1;exitDx=0;exitDy=0;entryX=0.132;entryY=0;entryDx=0;entryDy=0;entryPerimeter=0;" edge="1" parent="1" source="VGJzJ55Yt3Gp-UUYRj1f-3" target="VGJzJ55Yt3Gp-UUYRj1f-23">
          <mxGeometry relative="1" as="geometry" />
        </mxCell>
        <mxCell id="VGJzJ55Yt3Gp-UUYRj1f-25" style="edgeStyle=orthogonalEdgeStyle;rounded=0;orthogonalLoop=1;jettySize=auto;html=1;exitX=0.5;exitY=1;exitDx=0;exitDy=0;entryX=0.417;entryY=0;entryDx=0;entryDy=0;entryPerimeter=0;" edge="1" parent="1" source="VGJzJ55Yt3Gp-UUYRj1f-2" target="VGJzJ55Yt3Gp-UUYRj1f-23">
          <mxGeometry relative="1" as="geometry" />
        </mxCell>
        <mxCell id="VGJzJ55Yt3Gp-UUYRj1f-27" style="edgeStyle=orthogonalEdgeStyle;rounded=0;orthogonalLoop=1;jettySize=auto;html=1;exitX=0.5;exitY=1;exitDx=0;exitDy=0;entryX=0.825;entryY=0.1;entryDx=0;entryDy=0;entryPerimeter=0;" edge="1" parent="1" source="VGJzJ55Yt3Gp-UUYRj1f-4" target="VGJzJ55Yt3Gp-UUYRj1f-23">
          <mxGeometry relative="1" as="geometry" />
        </mxCell>
        <mxCell id="VGJzJ55Yt3Gp-UUYRj1f-33" value="mysql" style="shape=cylinder3;whiteSpace=wrap;html=1;boundedLbl=1;backgroundOutline=1;size=15;fillColor=#bac8d3;strokeColor=#23445d;" vertex="1" parent="1">
          <mxGeometry x="315" y="590" width="75" height="60" as="geometry" />
        </mxCell>
        <mxCell id="VGJzJ55Yt3Gp-UUYRj1f-34" value="redis" style="shape=cylinder3;whiteSpace=wrap;html=1;boundedLbl=1;backgroundOutline=1;size=15;fillColor=#bac8d3;strokeColor=#23445d;" vertex="1" parent="1">
          <mxGeometry x="515" y="590" width="70" height="60" as="geometry" />
        </mxCell>
        <mxCell id="VGJzJ55Yt3Gp-UUYRj1f-38" value="" style="rounded=1;whiteSpace=wrap;html=1;fillColor=none;arcSize=22;strokeColor=light-dark(#beccbb, #ededed);" vertex="1" parent="1">
          <mxGeometry x="160" y="580" width="600" height="80" as="geometry" />
        </mxCell>
        <mxCell id="VGJzJ55Yt3Gp-UUYRj1f-41" style="edgeStyle=orthogonalEdgeStyle;rounded=0;orthogonalLoop=1;jettySize=auto;html=1;exitX=0.5;exitY=1;exitDx=0;exitDy=0;entryX=0.192;entryY=0;entryDx=0;entryDy=0;entryPerimeter=0;" edge="1" parent="1" source="VGJzJ55Yt3Gp-UUYRj1f-8" target="VGJzJ55Yt3Gp-UUYRj1f-38">
          <mxGeometry relative="1" as="geometry" />
        </mxCell>
      </root>
    </mxGraphModel>
  </diagram>
</mxfile>
